<mxfile host="app.diagrams.net" modified="2023-06-10T06:55:50.715Z" agent="Mozilla/5.0 (Windows NT 10.0; Win64; x64) AppleWebKit/537.36 (KHTML, like Gecko) Chrome/114.0.0.0 Safari/537.36 Edg/114.0.1823.41" etag="3mcpBGKzPn8dctQooZHk" version="21.3.7" type="github">
  <diagram id="C5RBs43oDa-KdzZeNtuy" name="Page-1">
    <mxGraphModel dx="1500" dy="773" grid="1" gridSize="10" guides="1" tooltips="1" connect="1" arrows="1" fold="1" page="1" pageScale="1" pageWidth="827" pageHeight="1169" math="0" shadow="0">
      <root>
        <mxCell id="WIyWlLk6GJQsqaUBKTNV-0" />
        <mxCell id="WIyWlLk6GJQsqaUBKTNV-1" parent="WIyWlLk6GJQsqaUBKTNV-0" />
        <mxCell id="2gXygf_oaQFRd66tFr2P-7" value="" style="edgeStyle=orthogonalEdgeStyle;rounded=0;orthogonalLoop=1;jettySize=auto;html=1;fontSize=18;" parent="WIyWlLk6GJQsqaUBKTNV-1" source="2gXygf_oaQFRd66tFr2P-4" target="2gXygf_oaQFRd66tFr2P-6" edge="1">
          <mxGeometry relative="1" as="geometry" />
        </mxCell>
        <mxCell id="2gXygf_oaQFRd66tFr2P-4" value="前端發送推薦活動請求" style="rounded=1;whiteSpace=wrap;html=1;strokeWidth=2;fontSize=18;" parent="WIyWlLk6GJQsqaUBKTNV-1" vertex="1">
          <mxGeometry x="52" y="240" width="254" height="60" as="geometry" />
        </mxCell>
        <mxCell id="2gXygf_oaQFRd66tFr2P-9" value="" style="edgeStyle=orthogonalEdgeStyle;rounded=0;orthogonalLoop=1;jettySize=auto;html=1;fontSize=18;" parent="WIyWlLk6GJQsqaUBKTNV-1" source="2gXygf_oaQFRd66tFr2P-6" target="2gXygf_oaQFRd66tFr2P-8" edge="1">
          <mxGeometry relative="1" as="geometry" />
        </mxCell>
        <mxCell id="2gXygf_oaQFRd66tFr2P-6" value="後端調用 Azure function" style="rounded=1;whiteSpace=wrap;html=1;strokeWidth=2;fontSize=18;" parent="WIyWlLk6GJQsqaUBKTNV-1" vertex="1">
          <mxGeometry x="64" y="350" width="229" height="60" as="geometry" />
        </mxCell>
        <mxCell id="3ugvk7l6_1Lj14LhAfiH-1" value="" style="edgeStyle=orthogonalEdgeStyle;rounded=0;orthogonalLoop=1;jettySize=auto;html=1;fontSize=18;" edge="1" parent="WIyWlLk6GJQsqaUBKTNV-1" source="2gXygf_oaQFRd66tFr2P-8" target="3ugvk7l6_1Lj14LhAfiH-0">
          <mxGeometry relative="1" as="geometry">
            <Array as="points">
              <mxPoint x="415" y="510" />
              <mxPoint x="415" y="270" />
            </Array>
          </mxGeometry>
        </mxCell>
        <mxCell id="2gXygf_oaQFRd66tFr2P-8" value="Azure Function 從 &lt;br&gt;Azure Blob Storage 獲取活動資料" style="rounded=1;whiteSpace=wrap;html=1;strokeWidth=2;fontSize=18;" parent="WIyWlLk6GJQsqaUBKTNV-1" vertex="1">
          <mxGeometry x="20" y="470" width="317" height="80" as="geometry" />
        </mxCell>
        <mxCell id="3ugvk7l6_1Lj14LhAfiH-3" value="" style="edgeStyle=orthogonalEdgeStyle;rounded=0;orthogonalLoop=1;jettySize=auto;html=1;fontSize=18;" edge="1" parent="WIyWlLk6GJQsqaUBKTNV-1" source="3ugvk7l6_1Lj14LhAfiH-0" target="3ugvk7l6_1Lj14LhAfiH-2">
          <mxGeometry relative="1" as="geometry" />
        </mxCell>
        <mxCell id="3ugvk7l6_1Lj14LhAfiH-0" value="Azure Function 透過 API &lt;br&gt;拿取使用者歷史資料" style="whiteSpace=wrap;html=1;rounded=1;strokeWidth=2;fontSize=18;" vertex="1" parent="WIyWlLk6GJQsqaUBKTNV-1">
          <mxGeometry x="455" y="230" width="295" height="70" as="geometry" />
        </mxCell>
        <mxCell id="3ugvk7l6_1Lj14LhAfiH-8" value="" style="edgeStyle=orthogonalEdgeStyle;rounded=0;orthogonalLoop=1;jettySize=auto;html=1;fontSize=18;" edge="1" parent="WIyWlLk6GJQsqaUBKTNV-1" source="3ugvk7l6_1Lj14LhAfiH-2" target="3ugvk7l6_1Lj14LhAfiH-6">
          <mxGeometry relative="1" as="geometry" />
        </mxCell>
        <mxCell id="3ugvk7l6_1Lj14LhAfiH-2" value="進行使用推薦算法&lt;br&gt;進行處理，生成推薦結果" style="whiteSpace=wrap;html=1;rounded=1;strokeWidth=2;fontSize=18;" vertex="1" parent="WIyWlLk6GJQsqaUBKTNV-1">
          <mxGeometry x="455" y="350" width="295" height="60" as="geometry" />
        </mxCell>
        <mxCell id="3ugvk7l6_1Lj14LhAfiH-6" value="後端將最終的推薦活動列表&lt;br&gt;發送回前端" style="whiteSpace=wrap;html=1;rounded=1;strokeWidth=2;fontSize=18;" vertex="1" parent="WIyWlLk6GJQsqaUBKTNV-1">
          <mxGeometry x="455.5" y="460" width="295" height="60" as="geometry" />
        </mxCell>
      </root>
    </mxGraphModel>
  </diagram>
</mxfile>
